<svg width="800" height="200" xmlns="http://www.w3.org/2000/svg">
  <defs>
    <linearGradient id="grad1" x1="0%" y1="0%" x2="100%" y2="0%">
      <stop offset="0%" style="stop-color:#9d4edd;stop-opacity:1" />
      <stop offset="50%" style="stop-color:#4cc9f0;stop-opacity:1" />
      <stop offset="100%" style="stop-color:#06ffa5;stop-opacity:1" />
    </linearGradient>
    <linearGradient id="grad2" x1="0%" y1="0%" x2="100%" y2="100%">
      <stop offset="0%" style="stop-color:#16213e;stop-opacity:1" />
      <stop offset="100%" style="stop-color:#0f3460;stop-opacity:1" />
    </linearGradient>
  </defs>
  
  <!-- Background -->
  <rect width="800" height="200" fill="url(#grad2)" rx="10"/>
  
  <!-- Server Icon -->
  <rect x="60" y="50" width="80" height="100" fill="#9d4edd" rx="5" opacity="0.8"/>
  <rect x="70" y="65" width="60" height="8" fill="#06ffa5" rx="2"/>
  <rect x="70" y="80" width="60" height="8" fill="#4cc9f0" rx="2"/>
  <rect x="70" y="95" width="60" height="8" fill="#06ffa5" rx="2"/>
  <rect x="70" y="110" width="60" height="8" fill="#4cc9f0" rx="2"/>
  <circle cx="77" cy="130" r="3" fill="#06ffa5"/>
  <circle cx="87" cy="130" r="3" fill="#4cc9f0"/>
  <circle cx="123" cy="130" r="3" fill="#9d4edd"/>
  
  <!-- HTTP Icon -->
  <text x="180" y="110" font-family="monospace" font-size="48" font-weight="bold" fill="url(#grad1)">HTTP</text>
  
  <!-- Arrow -->
  <path d="M 380 100 L 440 100" stroke="#06ffa5" stroke-width="4" fill="none"/>
  <path d="M 430 90 L 440 100 L 430 110" stroke="#06ffa5" stroke-width="4" fill="none" stroke-linejoin="miter"/>
  
  <!-- Browser Icon -->
  <rect x="480" y="50" width="100" height="100" fill="#4cc9f0" rx="8" opacity="0.8"/>
  <rect x="480" y="50" width="100" height="25" fill="#9d4edd" rx="8"/>
  <circle cx="495" cy="62.5" r="4" fill="#06ffa5"/>
  <circle cx="507" cy="62.5" r="4" fill="#06ffa5"/>
  <circle cx="519" cy="62.5" r="4" fill="#06ffa5"/>
  <rect x="495" y="90" width="70" height="8" fill="#1a1a2e" rx="2" opacity="0.6"/>
  <rect x="495" y="105" width="55" height="8" fill="#1a1a2e" rx="2" opacity="0.6"/>
  <rect x="495" y="120" width="60" height="8" fill="#1a1a2e" rx="2" opacity="0.6"/>
  
  <!-- Test Badge -->
  <rect x="620" y="80" width="140" height="40" fill="#9d4edd" rx="20"/>
  <text x="690" y="107" font-family="Arial, sans-serif" font-size="20" font-weight="bold" fill="#e8e8e8" text-anchor="middle">WEBSERV</text>
</svg>
